<?xml version="1.0" encoding="UTF-8" standalone="no"?>
<svg
   shape-rendering="geometricPrecision"
   text-rendering="geometricPrecision"
   image-rendering="optimizeQuality"
   fill-rule="evenodd"
   clip-rule="evenodd"
   viewBox="0 0 510.00128 588.65551"
   version="1.1"
   id="svg12"
   sodipodi:docname="bratags-icon.svg"
   width="510.00128"
   height="588.65552"
   inkscape:version="1.2.1 (9c6d41e410, 2022-07-14)"
   xmlns:inkscape="http://www.inkscape.org/namespaces/inkscape"
   xmlns:sodipodi="http://sodipodi.sourceforge.net/DTD/sodipodi-0.dtd"
   xmlns="http://www.w3.org/2000/svg"
   xmlns:svg="http://www.w3.org/2000/svg">
  <defs
     id="defs16" />
  <sodipodi:namedview
     id="namedview14"
     pagecolor="#ffffff"
     bordercolor="#000000"
     borderopacity="0.25"
     inkscape:showpageshadow="2"
     inkscape:pageopacity="0.0"
     inkscape:pagecheckerboard="0"
     inkscape:deskcolor="#d1d1d1"
     showgrid="false"
     inkscape:zoom="2.006212"
     inkscape:cx="293.83734"
     inkscape:cy="269.16397"
     inkscape:window-width="3840"
     inkscape:window-height="2089"
     inkscape:window-x="2152"
     inkscape:window-y="1192"
     inkscape:window-maximized="1"
     inkscape:current-layer="svg12" />
  <path
     style="mix-blend-mode:normal;fill:#694e4e;fill-opacity:1;fill-rule:nonzero;stroke-width:0;stroke-dasharray:none"
     d="m 347.42156,567.9676 c -8.77275,-1.06033 -52.14647,-6.18216 -96.38605,-11.38186 -44.23957,-5.19969 -80.49623,-9.52034 -80.57036,-9.60144 -0.0741,-0.0811 7.23825,-62.84023 16.24972,-139.46474 9.01147,-76.6245 16.38908,-139.54714 16.39469,-139.82809 0.0104,-0.52237 57.78134,-46.34722 58.02156,-46.02367 0.0729,0.0982 1.22004,3.20656 2.54926,6.90757 1.32922,3.701 4.52909,11.88807 7.11082,18.19349 5.14408,12.56348 5.29581,13.00629 6.05025,17.65726 1.53243,9.44708 9.10065,17.82294 18.26009,20.20867 3.35297,0.87334 9.88838,0.98387 13.19155,0.22312 9.4176,-2.16898 17.38069,-10.85555 19.03826,-20.76795 1.18779,-7.10314 -1.14348,-15.46102 -5.84121,-20.94138 -2.83392,-3.30605 -7.71358,-6.52566 -11.55545,-7.62434 -4.94025,-1.41278 -11.77946,-1.30904 -16.34593,0.24796 -1.91904,0.65432 -3.53565,1.14411 -3.59246,1.08843 -0.43885,-0.43016 -10.35063,-27.17516 -10.69588,-28.86075 -0.11495,-0.56116 4.5464,-4.54184 15.00104,-12.81054 8.3423,-6.59802 15.32424,-11.93508 15.51543,-11.86013 0.19119,0.075 20.68869,24.22612 45.55,53.66928 44.63947,52.86635 45.19885,53.55536 44.91859,55.32815 -0.15609,0.98733 -7.45794,63.02994 -16.22633,137.87248 -8.7684,74.84254 -16.0765,136.91848 -16.24023,137.94654 -0.29073,1.82549 -0.3462,1.8678 -2.3723,1.8095 -1.14103,-0.0329 -9.25231,-0.92723 -18.02506,-1.98756 z"
     id="path1362" />
  <path
     fill-rule="nonzero"
     d="m 418.20652,288.6189 -34.35185,292.47122 a 8.552,8.552 0 0 1 -9.5035,7.50571 L 159.51609,563.36975 a 8.564,8.564 0 0 1 -7.5119,-9.51135 l 34.35185,-292.47122 a 8.51,8.51 0 0 1 3.1938,-5.73356 l 65.89668,-52.04409 C 231.74664,127.03758 237.23652,74.113953 255.64163,41.738161 273.13245,10.963704 301.96865,-1.96055 329.72624,0.23885298 357.30744,2.424657 383.67742,19.711424 396.48575,49.352765 411.99899,85.242497 407.4384,139.4073 359.22746,205.87417 c -1.17206,1.61377 -2.71929,2.78478 -4.42772,3.50968 l 61.4359,72.73825 c 1.58128,1.87309 2.20839,4.23216 1.94279,6.4935 z m -145.05571,-98.99192 32.48141,-25.65327 c 3.71979,-2.93782 9.10544,-2.29814 12.03707,1.4138 0.093,0.11771 0.18594,0.23543 0.26486,0.35149 l 23.89598,28.28799 0.3626,-0.54122 C 385.22233,134.15654 390.08964,87.624455 377.18585,57.765431 367.64738,35.684779 348.2261,22.823839 328.01589,21.226118 c -20.03381,-1.584123 -41.05155,8.057831 -54.056,30.943774 -15.39052,27.076846 -19.92646,71.818098 -0.80908,137.457088 z m 37.25483,46.33196 c 1.73465,0.32478 3.39172,1.06762 4.81011,2.26657 2.52514,1.53541 4.82564,3.52858 6.75939,5.97704 4.35096,5.50905 6.05627,12.26656 5.2974,18.72753 -0.75886,6.46097 -3.98355,12.63944 -9.4926,16.99039 -5.50905,4.35096 -12.25872,6.05007 -18.71969,5.2912 a 25.315,25.315 0 0 1 -16.99039,-9.4926 c -3.65058,-4.62226 -5.44654,-10.12312 -5.47319,-15.59416 -5.92103,-13.66038 -11.03848,-26.70663 -15.41761,-39.18915 l -58.21384,45.97631 -32.93806,280.43415 197.80398,23.23283 32.92321,-280.30774 -90.97482,-107.71939 -31.13161,24.58722 c 3.27192,9.72532 7.04253,19.87231 11.31183,30.44097 4.70427,-2.53028 9.95455,-3.46571 15.025,-2.87016 1.84617,0.22396 3.66305,0.63671 5.42089,1.24899 z"
     id="path10"
     style="display:inline;fill:#1a1a1a;fill-opacity:1;stroke-width:1;stroke-dasharray:none" />
  <path
     fill-rule="nonzero"
     d="m 375.81268,354.28756 -208.23,208.23 a 8.552,8.552 0 0 1 -12.11,0 L 2.5126782,409.56756 a 8.564,8.564 0 0 1 0,-12.12 l 208.2300018,-208.23 a 8.51,8.51 0 0 1 6.06,-2.52 h 83.97 c 28.86,-74.78 65.97,-112.909997 100.48,-126.909997 32.8,-13.31 63.44,-5.58 83.86,13.35 20.29,18.81 30.27,48.719997 21.95,79.919997 -10.07,37.78 -47.22,77.46 -126.25,99.74 -1.92,0.54 -3.86,0.5 -5.65,0.01 l 3.13,95.16 c 0.08,2.45 -0.89,4.69 -2.5,6.3 z m -52.48,-167.59 h 41.39 c 4.74,0 8.57,3.84 8.57,8.57 0,0.15 0,0.3 -0.01,0.44 l 1.22,37.01 0.62,-0.2 c 70.54,-19.89 103.2,-53.39 111.58,-84.82 6.2,-23.24 -1.07,-45.37 -15.94,-59.149997 -14.74,-13.66 -37.21,-19.12 -61.6,-9.22 -28.86,11.71 -60.15,44.009997 -85.83,107.369997 z m 0.52,59.45 c 1.16,1.33 2,2.94 2.37,4.76 1.03,2.77 1.6,5.76 1.6,8.88 0,7.02 -2.85,13.38 -7.45,17.98 -4.6,4.6 -10.96,7.45 -17.98,7.45 -7.02,0 -13.37,-2.85 -17.97,-7.45 a 25.315,25.315 0 0 1 -7.45,-17.98 c 0,-5.89 2,-11.32 5.37,-15.63 3.82,-14.39 7.89,-27.8 12.19,-40.31 h -74.18 l -199.660002,199.66 140.830002,140.83 199.57,-199.57 -4.63,-140.92 h -39.67 c -3.46,9.66 -6.79,19.96 -9.99,30.9 5.26,0.93 9.96,3.45 13.57,7.06 1.31,1.32 2.48,2.77 3.48,4.34 z"
     id="path10-1"
     style="display:inline;fill:#1a1a1a;fill-opacity:1" />
  <path
     style="display:inline;fill:#f3c5c5;fill-opacity:1;stroke-width:0.498452"
     d="m 91.217481,473.81381 -70.280729,-70.28206 99.689338,-99.69026 99.68932,-99.69026 h 36.76129 c 20.21871,0 36.76129,0.12213 36.76129,0.2714 0,0.14927 -1.45422,4.88028 -3.2316,10.51336 -1.77738,5.63307 -4.40529,14.42416 -5.83981,19.53575 -1.75742,6.26222 -3.14807,10.1901 -4.26327,12.04158 -6.01812,9.99139 -4.51347,22.96295 3.61487,31.16368 10.18044,10.2711 26.09747,10.35896 36.27837,0.20024 10.31124,-10.28877 10.10404,-27.04566 -0.45666,-36.93173 -2.18899,-2.04915 -7.11518,-4.84793 -10.02683,-5.69666 -1.43928,-0.41954 -2.61687,-0.89897 -2.61687,-1.06539 0,-0.60422 3.60079,-12.05126 6.58548,-20.93549 l 3.05609,-9.09674 h 19.54408 19.54407 l 0.29873,4.61068 c 0.16429,2.53587 1.2464,34.17258 2.40467,70.30379 l 2.10595,65.69312 -99.66852,99.66852 -99.66852,99.66853 z"
     id="path946" />
</svg>
